<?xml version="1.0" encoding="UTF-8"?>
<!-- Created with Inkscape (http://www.inkscape.org/) -->
<svg width="155.01mm" height="90.326mm" version="1.1" viewBox="0 0 155.01 90.326" xmlns="http://www.w3.org/2000/svg">
 <g transform="matrix(.20878 0 0 .20878 70.686 -6.1881e-5)">
  <path d="m101.35 427.91c5.3e-4 -2.5977 0.24521-14.682 0.54338-26.854 0.63057-25.741 3.6445-163.4 3.8822-177.32l0.16134-9.4462-2.1591 0.13402c-3.655 0.22687-90.469 7.1054-94.057 7.4524l-3.3736 0.32628v-33.989l2.0242 0.23211c1.1133 0.12766 21.213 1.7963 44.667 3.7081 23.453 1.9118 43.935 3.6101 45.514 3.774 2.2312 0.23154 2.7796 0.14552 2.46-0.38587-0.22623-0.37612-3.4473-4.4488-7.158-9.0504-17.023-21.111-28.586-38.242-37.096-54.959-8.1503-16.012-12.818-30.395-14.821-45.673-0.84546-6.4481-0.35646-22.989 0.83884-28.375 3.1116-14.021 9.4574-25.528 19.65-35.635 10.383-10.295 22.603-16.892 37.572-20.284 6.0242-1.3649 22.117-1.6442 28.98-0.50293 21.45 3.5669 39.9 15.644 51.097 33.446 7.9499 12.64 11.393 26.621 10.708 43.487-1.2749 31.403-16.859 64.008-50.958 106.62-4.8963 6.118-8.8043 11.222-8.6844 11.341 0.19938 0.19938 87.32-6.8948 92.602-7.5405l2.2941-0.28045v16.993c0 15.835-0.0644 16.991-0.94462 16.963-0.51953-0.0164-22.806-1.8007-49.525-3.9653s-48.789-3.8208-49.044-3.6806c-0.25492 0.14022-0.30492 6.1146-0.11113 13.277 0.19379 7.1618 1.1817 51.278 2.1953 98.037 1.0136 46.758 2.0012 89.934 2.1947 95.946l0.35171 10.931h-29.807l1e-3 -4.7231zm19.919-252.06c9.4405-8.6868 21.024-22.821 28.662-34.971 7.9439-12.638 15.431-29.034 19.138-41.908 4.9069-17.044 4.6852-32.39-0.64769-44.831-12.632-29.47-47.448-42.564-76.585-28.803-12.169 5.7472-21.088 14.404-26.649 25.865-4.2028 8.6623-4.9573 11.975-5.2603 23.098-0.23926 8.7832-0.14872 10.058 1.1564 16.284 4.6947 22.396 17.31 47.59 34.509 68.918 4.2414 5.2597 19.403 20.512 20.391 20.512 0.41931 0 2.7983-1.8734 5.2867-4.1631z" stroke-linejoin="round" stroke-width="4.0802"/>
  <path d="m189.25 393.07c0.47895 0.44987 2.0832 1.9691 3.5651 3.3761 8.428 8.0023 18.533 15.408 28.001 20.522 25.879 13.978 49.972 14.831 69.677 2.4664 2.4789-1.5555 3.5236-2.4009 8.1357-6.5839 4.5399-4.1175 5.5699-5.1602 7.2508-7.3401 7.5909-9.8445 10.222-21.23 7.2432-31.347-3.1673-10.758-12.625-19.807-22.654-21.674-18.337-3.4127-35.006 11.456-31.964 28.512 0.99936 5.6027 4.3643 10.835 8.8557 13.769 4.0334 2.6354 9.4251 3.4838 13.908 2.1884 3.0197-0.8726 4.8725-1.8461 6.7688-3.5564 4.309-3.8863 5.7147-9.5633 3.623-14.631-0.78968-1.9133-3.1503-4.6206-4.6137-5.2911-1.5644-0.71683-3.807-0.95492-5.5143-0.58543-1.3065 0.28276-1.7472 0.52183-2.9405 1.5953-1.8841 1.6948-2.6526 3.6324-2.1811 5.4988 0.41481 1.6421 1.5268 2.92 2.5425 2.9217 0.70604 1e-3 0.76269-0.0476 1.38-1.1895 0.9207-1.7029 2.3925-2.9693 3.3391-2.873 1.9222 0.19551 3.3278 3.8176 2.5106 6.4697-0.5912 1.9187-1.4079 2.9486-3.3397 4.2116-2.0202 1.3207-4.1964 1.912-6.5888 1.7902-2.8009-0.14264-4.6632-0.99153-6.6746-3.0424-8.6791-8.8499-3.1996-23.625 10.189-27.475 11.906-3.4233 23.694 5.5091 25.615 19.409 0.72288 5.2311-0.94811 12.311-4.0331 17.089-4.5144 6.9909-13.443 14.774-20.696 18.04-2.1814 0.98239-6.791 2.2823-9.4441 2.6633-13.306 1.9106-29.103-2.3932-44.877-12.226-15.875-9.8959-30.501-24.574-41.249-41.394-5.1793-8.1058-8.036-13.438-11.705-21.847-5.8251-13.351-11.597-30.516-17.835-53.037-13.279-47.943-19.965-91.364-20.597-133.74-0.16382-10.999 0.27818-17.866 1.4287-22.198 0.57201-2.1536 0.58201-2.4773 0.0932-3.0172-0.30118-0.33261-4.3351-4.003-8.9642-8.1565-4.6291-4.1534-12.282-11.04-17.007-15.302-4.725-4.2629-8.7732-7.907-8.996-8.098-0.2846-0.24399-0.26713 0.32298 0.0588 1.9066 1.0918 5.3051 1.7379 11.581 2.6289 25.537 1.6776 26.276 5.0341 51.077 11.202 82.774 7.9554 40.88 19.542 84.4 28.028 105.28 0.63652 1.5658 1.8009 4.6042 2.5876 6.7519 8.6784 23.694 15.451 36.856 27.495 53.438 2.3691 3.2616 4.5515 5.9148 9.0017 10.943 3.2309 3.6508 6.2663 7.0059 6.7452 7.4558z" fill="#010101" stroke-width=".26458"/>
  <path d="m19.396 75.986c10.146-43.734 48.996-77.234 98.901-75.95 58.053 1.4949 87.768 40.321 93.784 71.694l0.48662 0.24455c26.901 167.58-217.04 164.19-193.17 4.01z" fill="#c13c1b" stroke-width=".34557"/>
 </g>
 <text transform="matrix(.26458 0 0 .26458 83.952 6.8124)" font-family="sans-serif" font-size="113.33px" letter-spacing="0px" word-spacing="0px" style="line-height:1.25;shape-inside:url(#rect2285);white-space:pre" xml:space="preserve"/>
 <text transform="matrix(.26458 0 0 .26458 194.28 69.431)" font-family="'Matura MT Script Capitals'" font-size="113.33px" letter-spacing="0px" word-spacing="0px" style="font-variant-caps:normal;font-variant-east-asian:normal;font-variant-ligatures:normal;font-variant-numeric:normal;line-height:1.25;shape-inside:url(#rect33809);white-space:pre" xml:space="preserve"/>
</svg>
